<svg width="400" height="388" viewBox="0 0 400 388" fill="none" xmlns="http://www.w3.org/2000/svg">
<path d="M187.333 0.933297C175.866 1.99996 152.666 6.9333 141.6 10.8C121.466 17.8666 98.7998 31.7333 87.3331 44.1333C84.5331 47.2 86.1331 46.2666 93.0664 41.0666C110.666 27.7333 133.466 18.4 159.2 13.7333C175.466 10.8 209.066 10.5333 212.933 13.3333C214.533 14.4 220.933 19.4666 227.2 24.6666C242.4 37.0666 252 42.6666 267.733 48.8C281.866 54.1333 297.2 61.4666 303.066 65.6L306.666 68.1333V65.0666C306.533 60.2666 299.6 43.8666 294.133 35.6C281.2 16.1333 260.266 5.59996 226.666 1.46663C216 0.133297 199.2 -0.133369 187.333 0.933297Z" fill="white"/>
<path d="M291.867 20.6667C307.467 37.4667 310 41.3334 312.533 50.6667C315.467 61.3334 322.8 80.1334 327.467 88.8001C329.467 92.5334 337.867 102 346.533 110.533L361.867 125.733L363.867 121.2C364.933 118.533 365.867 111.867 365.867 105.2C366 94.6667 365.6 93.2001 360.933 83.7334C354.8 71.2001 340.8 56.4001 325.867 46.6667C320 42.9334 309.6 34.4001 302.667 27.7334C285.467 11.4667 279.733 7.73339 291.867 20.6667Z" fill="white"/>
<path d="M176.667 30.6668C160 33.2001 144.134 42.9335 137.734 54.5335C134.934 59.4668 131.6 62.5335 122.667 68.4001C105.867 79.6001 101.467 83.6001 114 76.6668C130.8 67.2001 135.334 66.1335 151.867 67.4668C182.4 70.0001 192.534 68.4001 213.334 57.7335C221.6 53.6001 227.734 51.3335 232.934 50.8001L240.4 50.0001L234.667 44.8001C221.334 32.8001 198.8 27.3335 176.667 30.6668Z" fill="white"/>
<path d="M238.533 57.2C229.733 60 221.067 65.7333 214.4 73.0666C209.733 78.2666 209.333 78.4 198.533 79.3333C178.533 81.0666 155.6 88.9333 145.333 97.3333L142 100.133L147.333 97.6C166.4 88.2666 186.267 86.2666 213.733 90.6666C241.2 95.0666 256.667 94.1333 279.067 86.9333C288.4 83.8666 297.6 81.3333 299.333 81.3333C301.2 81.3333 302.667 80.8 302.667 80.1333C302.667 77.6 287.467 64.9333 280.8 61.8666C272.8 58.2666 257.867 54.6666 250.667 54.8C248.133 54.8 242.667 55.8666 238.533 57.2Z" fill="white"/>
<path d="M282 96.0001C278.4 96.6667 268.133 97.7334 259.333 98.5334C234.533 100.8 232.667 102.267 255.467 101.6L275.733 100.933L284.267 108.933C295.6 119.467 301.733 122.8 320.267 128.533C328.933 131.2 338.8 134.667 342.133 136L348.267 138.667L347.467 133.733C344.933 119.6 334.267 106.133 320 99.4667C312.8 96.1334 309.467 95.4667 300 95.2001C293.733 95.0667 285.733 95.3334 282 96.0001Z" fill="white"/>
<path d="M372.267 126.267C369.467 157.733 370.4 168.4 377.333 187.2L380.267 194.933L383.333 192C385.067 190.4 388.8 184.8 391.467 179.467C395.733 171.467 396.533 168.4 397.067 159.6C398.133 141.867 391.333 124.533 378.4 112.267L373.867 108L372.267 126.267Z" fill="white"/>
<path d="M23.2002 110.8C14.6668 112.8 10.2668 117.867 13.2002 122.4C14.0002 123.867 15.4668 123.867 20.0002 122.667C23.0668 121.867 25.8668 121.467 26.2668 121.733C26.5335 122.133 25.3335 131.867 23.3335 143.467C21.4668 155.2 19.2002 169.733 18.2668 175.867L16.6668 187.067L10.6668 188.8C5.20016 190.4 1.3335 193.467 1.3335 196.267C1.3335 196.933 10.5335 197.2 21.7335 197.067C40.9335 196.667 42.0002 196.533 42.0002 194C42.0002 192 40.5335 190.8 36.2668 189.467C30.8002 187.733 30.4002 187.467 31.2002 183.733C31.6002 181.6 33.4668 168.4 35.3335 154.267C40.0002 119.467 39.4668 121.333 44.0002 121.333C46.1335 121.333 48.6668 120.933 49.8668 120.533C52.5335 119.467 52.6668 114.133 50.1335 112C47.6002 110 30.1335 109.067 23.2002 110.8Z" fill="white"/>
<path d="M173.333 132.667C172.4 133.733 171.733 136.133 171.733 138C171.733 142.533 174.267 145.333 178.8 145.333C185.867 145.333 189.333 137.467 184.267 132.933C181.2 130.133 175.467 130 173.333 132.667Z" fill="white"/>
<path d="M301.333 137.333C299.867 138.8 298.667 140.933 298.667 142C298.667 144.8 303.467 149.333 306.4 149.333C310 149.333 312 146.667 312 141.733C312 138.8 311.2 136.933 309.467 136C305.733 134.133 304.4 134.267 301.333 137.333Z" fill="white"/>
<path d="M324.8 146.8C328.4 159.467 336.8 175.6 343.067 181.867C349.733 188.533 363.6 198.133 364.8 196.933C365.2 196.533 365.6 191.2 365.733 185.067C365.867 160.667 351.733 143.067 329.6 140.4L322.667 139.6L324.8 146.8Z" fill="white"/>
<path d="M54.7998 149.2C52.1332 150.933 50.6665 159.6 50.6665 174.933C50.6665 190.933 52.1332 196 56.7998 196C60.5332 196 60.9332 195.467 66.7998 180.133L71.5998 167.733L72.3998 177.733C72.7998 183.333 73.8665 189.6 74.9332 191.6C77.1998 196.4 82.5332 197.067 88.7998 193.467L93.4665 190.667L97.4665 193.733C102.933 197.6 114.133 197.6 123.2 193.467C126.8 191.867 129.867 190.8 130.133 191.067C130.4 191.2 129.067 195.467 127.333 200.4C120.133 220.267 126 239.467 137.333 233.333C142.267 230.667 145.6 220.8 146.4 207.067L147.067 194.667L150.533 195.6C155.733 197.067 163.733 196.533 165.867 194.667C167.467 193.467 168.533 193.6 170.933 195.2C175.067 198.133 178.533 197.867 185.6 194.133L191.733 190.933L193.2 194.133C194.8 197.6 197.6 198.267 199.733 195.6C200.4 194.8 202.4 188 204 180.8L206.933 167.467L209.467 174.133C212.267 181.6 214.933 184 220.133 184C223.067 184 224.133 184.8 225.333 188.667C228.267 197.333 236.133 199.867 243.333 194.133L247.2 191.067L249.733 194.133C252.8 198.133 258.667 198.4 262 194.667L264.4 192L267.733 194.933C271.867 198.8 281.067 198.8 290.133 194.8C295.733 192.267 296.667 192.133 297.6 194C303.733 204.8 321.733 191.467 324.667 174L325.467 168.667L322.933 174.133C319.733 180.667 310.933 189.6 308.133 189.067C305.2 188.533 304.8 182.8 306.667 168.933C308.533 155.6 307.733 153.2 302.133 155.733C299.6 156.933 298.8 158.533 298.133 164.267C296 180.933 296 181.333 291.733 183.467C289.6 184.533 287.6 185.333 287.467 185.067C287.333 184.8 286.267 180.8 285.067 176C283.067 168.267 283.067 166.933 284.8 164.267C288 159.333 286.8 155.333 282 155.333C278.533 155.333 277.467 156.533 272 165.6C268.667 171.2 264.4 177.6 262.4 179.733C260.267 181.733 258.667 184.267 258.667 185.2C258.667 186.133 257.6 186.667 256.4 186.4C254.267 186 254 184 253.6 171.6C253.333 158.933 252.933 157.333 250.933 157.333C249.6 157.333 247.333 156.4 245.867 155.333C244.533 154.267 242.267 153.333 241.067 153.333C237.467 153.333 230.667 160 227.6 166.533C225.333 171.333 223.867 172.8 221.067 173.067C216.933 173.6 216.267 172 215.733 160.667C215.333 154.267 215.2 154 211.333 154C208.133 154 206.933 154.933 204.4 159.333L201.467 164.667L200.533 158.8C199.6 153.067 196.933 150.533 194.533 152.933C193.867 153.6 192.8 160 192.133 167.2C191.2 178.8 190.667 180.533 187.333 184C182.8 188.8 179.067 189.2 178 184.933C177.6 183.333 178.133 175.733 179.2 168C180.267 160.4 180.8 153.6 180.533 153.067C179.467 151.333 173.733 151.867 172.133 153.867C171.333 154.8 170 160.667 169.2 166.8C168.4 172.933 167.6 179.333 167.2 180.8C166.667 184.133 159.333 188 154 188H150.4L155.733 182.8C166.667 172.133 164 153.6 151.2 151.2C141.733 149.467 137.067 154.8 134.933 169.6C134 176.4 133.733 176.8 126.933 180.4L120 184.133V180.933C120 179.2 119.067 174.933 117.867 171.467C115.733 165.333 115.733 164.933 118.533 160C122 153.733 122 153.867 118.133 151.333C113.467 148.267 110.667 150.267 103.467 161.733C100.133 166.933 95.3332 173.467 92.6665 176C90.1332 178.4 87.9998 181.333 87.9998 182.267C87.9998 184.933 83.9998 186 82.5332 183.867C81.8665 182.8 81.3332 175.333 81.3332 167.2C81.3332 151.6 80.5332 149.333 75.0665 149.333C71.7332 149.333 69.5998 152.133 65.8665 161.6C62.6665 169.6 60.9332 169.867 61.9998 162.133C62.5332 158.933 62.5332 155.067 61.9998 153.467C60.9332 150 57.1998 147.867 54.7998 149.2ZM153.333 162.667C155.867 167.333 149.6 182.667 145.2 182.667C143.467 182.667 143.733 167.467 145.6 163.333C147.333 159.333 151.333 158.933 153.333 162.667ZM243.867 172.533C242.8 183.733 240.8 188.4 237.6 187.733C233.067 186.933 234 172.267 238.8 166.133C243.6 160 244.933 161.6 243.867 172.533ZM110.267 180.4C110.933 185.6 110.533 186.667 108.133 188C105.733 189.2 104.533 189.067 101.867 187.333C100.133 186.267 98.6665 184.667 98.6665 183.733C98.6665 181.333 107.2 172.267 108.533 173.467C109.067 174 110 177.067 110.267 180.4ZM278.133 180.667C279.6 189.067 275.333 193.333 270.4 188.267L267.6 185.6L271.333 180.8C273.333 178.133 275.467 176 276.133 176C276.667 176 277.6 178.133 278.133 180.667ZM137.2 212.933C137.333 222.8 136.133 225.467 133.333 222C131.733 220 132.133 209.867 134.267 201.467C135.067 198.4 135.2 198.267 136.133 200.667C136.667 202.133 137.2 207.6 137.2 212.933Z" fill="white"/>
<path d="M390.4 195.733C379.466 207.467 375.2 218.667 373.733 240.533L372.933 253.6L377.2 251.467C384.533 247.6 391.733 240.133 395.6 232.267C399.066 225.333 399.333 223.467 399.2 210C399.066 201.867 398.533 194 397.733 192.267C396.533 189.2 396.4 189.333 390.4 195.733Z" fill="white"/>
<path d="M347.067 199.6C345.067 207.067 346.267 223.067 349.2 230.8C352.533 239.467 359.467 249.733 361.333 248.667C363.867 247.067 367.2 233.733 367.2 225.333C367.067 214.8 363.867 208 356.133 200.933C349.6 195.067 348.4 194.8 347.067 199.6Z" fill="white"/>
<path d="M164.667 204.4C162 207.067 159.467 211.6 158.133 216C155.2 225.733 152.8 253.067 153.867 264.8C154.533 273.867 154.4 274.4 150.933 277.733C143.867 284.533 142.4 281.733 143.6 263.067L144.4 250.667L140.133 249.867C137.867 249.333 135.6 248.4 135.2 247.867C134.8 247.2 132.667 246.667 130.4 246.667C127.2 246.667 124.8 248.133 120.533 252.667C111.733 261.733 108.4 276 112.533 286C115.867 294 123.067 295.467 131.333 289.867L136.4 286.533L140 290C144 293.867 147.733 293.733 152.4 289.467C154.667 287.6 155.067 287.6 156.667 289.733C157.467 290.933 159.467 292 161.067 292C163.2 292 164.933 289.2 170 276.933C177.067 260.133 178.4 257.867 180.4 259.867C181.333 260.8 181.067 262.133 179.467 263.867C176.4 267.333 173.467 275.467 173.333 281.067C173.333 286.267 178.267 292 182.933 292C184.667 292 188.4 290.8 191.333 289.333C196.133 286.933 196.667 286.8 198.933 288.8C201.867 291.6 209.2 290.667 214.667 286.667L218.667 283.867L221.867 287.6C226.267 292.8 228.133 290.667 233.6 274.933L238 262L238.8 272.667C239.2 278.533 240.267 284.8 241.2 286.4C243.067 290 247.333 290.133 252.533 286.8C256.4 284.267 256.4 284.267 260.133 287.067C263.867 289.733 264.133 289.733 268.667 287.6C271.2 286.4 273.333 285.733 273.333 286.267C273.333 286.8 270.533 290.667 267.2 294.933C250.933 315.6 248.933 332 262.533 332C265.6 332 268.933 330.933 270.933 329.333C275.6 325.733 280 314.8 280.933 304.4C281.733 296.4 282.267 295.067 287.733 288.933C298.4 276.933 303.6 260.267 302.267 243.2C300.933 227.467 298.8 225.333 298.8 239.6C298.667 256.533 292.4 274.933 284.533 281.467C282.533 283.2 282.4 282.267 282.667 268.667C283.2 248.133 283.2 248 279.467 248C277.733 248 275.6 247.067 274.667 246C272.133 242.933 269.867 243.6 264.133 248.8C258.667 253.733 256.533 258.133 254 270.667C253.067 275.733 251.867 278.133 250.267 278.4C246.667 279.067 245.067 272.8 246.133 261.333C247.2 249.067 245.6 244.933 240.267 245.6C237.333 246 236.267 247.333 233.333 254.667L230 263.333L229.6 257.333C229.067 247.867 228.133 245.333 225.467 245.333C221.467 245.333 220.4 248 219.333 261.333C218.533 272.4 218 274.4 214.933 277.6C213.067 279.733 210.4 281.333 209.067 281.333C207.067 281.333 206.667 280.133 206.667 272.933C206.667 268.4 207.333 260.8 208.133 256.133C209.6 246.533 208.667 244.533 203.467 245.867C199.6 246.8 199.2 247.867 197.333 261.2C195.733 272.667 190.8 281.2 185.867 281.333C182.133 281.333 182.667 276.4 187.2 267.6C189.867 262.533 192 256.533 192 254.133C192 249.6 188.667 245.333 185.067 245.333C181.867 245.333 176.4 250.267 173.2 256C168.667 264 167.733 262.4 171.6 253.067C180 232.267 182.8 208.133 177.333 202.667C173.467 198.8 169.733 199.333 164.667 204.4ZM172 213.6C171.867 215.333 169.867 225.6 167.333 236.667L162.933 256.667L162.8 246.667C162.667 234.267 164.4 222.133 167.067 215.6C169.467 210.133 172 209.067 172 213.6ZM273.867 258.933C272.4 272.933 271.733 275.733 270.133 278.133C268.533 280.133 268 280.267 266.133 278.8C261.067 274.533 266.533 253.333 272.667 253.333C273.867 253.333 274.267 254.933 273.867 258.933ZM132.933 266C131.867 277.2 129.067 284.4 125.733 283.733C122.933 283.2 121.2 276.933 122.267 271.467C123.333 266 127.467 257.733 129.6 256.933C133.333 255.333 133.733 256.267 132.933 266ZM269.067 315.733C267.333 319.333 264.933 322.267 263.467 322.533C261.333 322.933 261.067 322.4 261.867 318.533C262.267 316 264.667 311.2 267.067 307.6L271.333 301.333L271.733 305.467C272 307.867 270.933 312.133 269.067 315.733Z" fill="white"/>
<path d="M54 209.867C42.1333 213.6 36 221.333 36 232.533C36 242.267 39.4667 242 44.9333 232C50.2667 222.4 60.9333 218.933 80.8 220.4C94.8 221.467 101.333 225.333 101.333 232.667C101.333 241.467 93.3333 246.667 79.7333 246.667C73.8667 246.667 73.3333 246.933 73.3333 250C73.3333 254 77.0667 256.533 85.6 258.667C93.7333 260.667 98 265.2 98 271.867C98 282.4 90.5333 288.533 77.8667 288.533C65.4667 288.533 64.9333 287.733 64.2667 267.733C63.8667 252.267 64.5333 246.267 68.8 229.733C69.3333 227.733 68.8 226.533 66.6667 225.333C59.7333 221.6 54.5333 231.067 51.8667 252C50.2667 265.2 51.4667 291.2 53.8667 293.2C56.9333 295.733 71.2 298.667 80.2667 298.667C90.5333 298.667 97.8667 295.733 102.4 290C111.467 278.4 108.8 260 97.3333 254.4L93.3333 252.4L98.5333 250.8C108.533 247.867 115.067 237.733 112.8 228.8C109.333 214.8 74.2667 203.467 54 209.867Z" fill="white"/>
<path d="M202.4 225.467C199.6 227.067 199.2 234.667 201.6 237.067C203.866 239.333 210.133 239.067 212.533 236.533C218.933 230.267 210.266 220.8 202.4 225.467Z" fill="white"/>
<path d="M343.866 249.6C340.266 256.533 339.2 268.933 341.2 278.667C343.6 290 344.666 290.933 349.333 285.467C357.466 275.867 359.6 260.8 354.266 250.533C350.133 242.667 347.466 242.4 343.866 249.6Z" fill="white"/>
<path d="M379.333 258.267C370.933 264.933 366.133 270.533 362.133 278.533C358.4 285.867 355.2 295.733 356.267 296.8C357.467 297.867 366.8 292.8 374.267 286.8C383.333 279.6 386.933 272.133 386.4 261.2L386 252.933L379.333 258.267Z" fill="white"/>
<path d="M342 310.133C335.866 321.467 312.133 340.533 290.266 351.467C278.266 357.6 257.466 364.533 240 368.133C223.333 371.6 194.4 372.267 178.666 369.467C155.733 365.333 122.133 351.467 100.666 337.067C94.9331 333.2 84.6665 324.933 78.1331 318.667C71.0665 312.133 67.0665 309.067 68.5331 311.333C85.4665 338.533 115.466 364.667 141.733 375.333C172.4 387.733 204.533 390.8 239.2 384.667C286.133 376.267 326 349.333 341.333 315.467C345.733 305.733 346.266 302.4 342 310.133Z" fill="white"/>
<path d="M94.6669 321.867C106.534 334.533 129.867 347.867 149.6 353.333C162.667 356.933 165.334 356.667 154.4 352.667C137.067 346.533 105.467 328.933 91.3335 317.6C89.8669 316.4 91.3335 318.267 94.6669 321.867Z" fill="white"/>
<path d="M338.667 340.933C325.733 356.4 301.867 373.6 283.067 381.2C278.4 382.933 274.8 384.667 275.067 384.8C275.867 385.733 291.733 380.8 299.467 377.333C316.8 369.6 332.4 356.133 342 340.933C344.667 336.667 346.667 332.933 346.4 332.667C346.133 332.4 342.667 336.133 338.667 340.933Z" fill="white"/>
</svg>
