<svg width="649" height="648" viewBox="0 0 649 648" fill="none" xmlns="http://www.w3.org/2000/svg">
<path d="M344.733 3.53338C325 12.7334 321.266 40.3334 337.933 54.3334C344.2 59.6667 348.6 61.1334 362.733 63C424.333 70.8667 486.066 104.6 525.933 152.2C559 191.8 578.866 235.8 586.333 286.2C587.533 294.2 589.133 301.933 589.933 303.533C593.4 310.467 598.466 315.533 604.866 318.467C616.333 323.8 628.066 322.2 637.8 313.8C648.733 304.6 650.2 295.8 645.666 268.733C633.666 199 601.4 137.667 550.866 89C503.266 43.1334 445.8 14.3334 379.933 3.00005C359.266 -0.466618 353.266 -0.333285 344.733 3.53338Z" fill="white"/>
<path d="M94.1998 64.0667C83.6664 67.8001 76.5998 73.8001 44.1998 106.6C12.4664 138.733 7.66644 145.267 2.86644 162.333C-0.200226 173.533 0.466441 209.8 4.19977 227.667C11.6664 263.533 31.5331 312.467 55.7998 354.467C89.3998 412.867 143.133 476.867 197.8 523.667C267.933 583.8 356.6 631.533 421.666 644.467C433.666 646.867 441.533 647.533 458.333 647.533C478.333 647.667 480.333 647.4 490.333 643.933C507.8 637.667 513.533 633.267 546.6 599.933C573.933 572.467 578.2 567.667 581.933 559.533C585.666 551.667 586.333 548.867 586.333 540.333C586.2 521.933 585.4 520.867 532.733 468.067C503 438.333 484.333 420.733 480.466 418.6C471 413.533 460.866 411.667 452.2 413.533C438.2 416.6 434.333 419.4 402.733 450.733C380.066 473.133 371.666 480.733 369.266 480.6C364.466 480.6 335.266 465.533 319.933 455.133C278.2 426.6 234.733 384.6 202.733 342.067C183 315.667 165.666 283.8 167.8 277.4C168.2 275.8 181.666 261.533 197.666 245.8C231.266 212.467 233.933 208.333 234.733 190.867C235.266 181.933 234.733 179.533 231.533 172.2C228.2 164.467 223.533 159.4 181.8 117.267C142.2 77.4001 134.466 70.3334 127.4 66.7334C116.6 61.5334 104.2 60.4667 94.1998 64.0667Z" fill="white"/>
<path d="M344.733 119.533C333.133 125 325.8 138.2 327.533 150.6C329.133 162.467 337.933 173.533 347.933 176.2C372.866 182.867 379.8 185.133 389.666 189.8C432.066 209.933 460.066 245.8 471.133 293.8C473.266 303 474.866 306.6 478.733 311C488.2 322.2 502.866 324.867 516.466 317.933C532.066 310.067 535.666 296.6 529.133 271.533C519 233.133 501.533 202.733 473.666 175C445.666 146.867 413.8 128.733 375.933 119.667C359 115.533 353.533 115.533 344.733 119.533Z" fill="white"/>
</svg>
